<svg viewBox="0 0 843 89" fill="currentColor" xmlns="http://www.w3.org/2000/svg" aria-label="pocket" role="img">
<path d="M47.56 37.26L47.56 37.26Q47.56 40.72 46.01 43.54Q44.46 46.37 41.62 48.24L41.62 48.24Q39.89 49.43 37.76 50.15L37.76 50.15L47.02 64.73Q47.70 65.77 48.44 66.37Q49.18 66.96 50.47 67.28L50.47 67.28Q51.66 67.57 52.06 67.95Q52.45 68.33 52.45 68.94L52.45 68.94Q52.45 69.59 51.95 70.00Q51.44 70.42 50.40 70.42L50.40 70.42L35.71 70.42Q33.77 70.42 33.77 68.94L33.77 68.94Q33.77 68.51 34.02 68.22Q34.27 67.93 34.81 67.72L34.81 67.72L36.04 67.43Q36.83 67.14 36.94 66.64Q37.04 66.13 36.50 65.23L36.50 65.23L28.55 51.95Q28.01 51.98 27.43 51.98L27.43 51.98Q25.16 51.98 23.09 51.68Q21.02 51.37 19.30 50.76L19.30 50.76Q19.19 50.72 19.08 50.69L19.08 50.69L19.08 64.84Q19.08 65.63 19.48 66.13Q19.87 66.64 20.70 66.85L20.70 66.85L23.51 67.28Q24.34 67.57 24.64 67.95Q24.95 68.33 24.95 68.94L24.95 68.94Q24.95 70.42 23.00 70.42L23.00 70.42L5.83 70.42Q4.82 70.42 4.34 70.00Q3.85 69.59 3.85 68.94L3.85 68.94Q3.85 67.72 5.29 67.28L5.29 67.28L7.52 66.85Q8.39 66.64 8.86 66.13Q9.32 65.63 9.32 64.84L9.32 64.84L9.32 25.56Q9.32 24.80 8.86 24.30Q8.39 23.80 7.52 23.58L7.52 23.58L5.29 23.15Q3.85 22.72 3.85 21.49L3.85 21.49Q3.85 20.81 4.34 20.41Q4.82 20.02 5.83 20.02L5.83 20.02L23.00 20.02Q30.89 20.02 36.36 22.23Q41.83 24.44 44.69 28.33Q47.56 32.22 47.56 37.26ZM19.08 23.04L19.08 47.70Q20.52 48.20 22.25 48.46L22.25 48.46Q23.98 48.74 25.81 48.74L25.81 48.74Q31.28 48.74 34.36 45.83Q37.44 42.91 37.44 37.33L37.44 37.33Q37.44 33.19 35.62 29.97Q33.80 26.75 30.49 24.89Q27.18 23.04 22.68 23.04L22.68 23.04L19.08 23.04ZM87.80 49.25L87.80 49.25Q87.80 51.05 86.76 52.00Q85.72 52.96 83.77 52.96L83.77 52.96L63.47 52.96Q63.90 58.54 66.74 61.56L66.74 61.56Q70.09 65.16 75.56 65.16L75.56 65.16Q78.95 65.16 81.45 63.72Q83.95 62.28 85.18 59.80L85.18 59.80Q85.72 59.15 86.06 58.91Q86.40 58.68 86.80 58.68L86.80 58.68Q87.30 58.68 87.55 59.15Q87.80 59.62 87.77 60.26L87.77 60.26Q87.59 63.25 85.63 65.77Q83.66 68.29 80.33 69.79Q77.00 71.28 72.76 71.28L72.76 71.28Q67.61 71.28 63.67 69.16Q59.72 67.03 57.51 63.18Q55.30 59.33 55.30 54.14L55.30 54.14Q55.30 48.78 57.44 44.62Q59.58 40.46 63.54 38.07Q67.50 35.68 73.01 35.68L73.01 35.68Q77.62 35.68 80.93 37.40Q84.24 39.13 86.02 42.19Q87.80 45.25 87.80 49.25ZM63.40 50.40L77.04 50.40Q78.84 50.40 78.84 48.82L78.84 48.82Q78.84 44.03 76.93 41.44Q75.02 38.84 71.82 38.84L71.82 38.84Q69.34 38.84 67.43 40.30Q65.52 41.76 64.48 44.46L64.48 44.46Q63.47 47.02 63.40 50.40L63.40 50.40ZM125.14 45.32L125.14 45.32Q125.14 47.20 123.86 48.46Q122.58 49.72 120.46 49.72L120.46 49.72Q118.40 49.72 117.31 48.56Q116.21 47.41 116.21 45.54L116.21 45.54L116.21 44.42Q116.21 41.90 114.57 40.37Q112.93 38.84 110.12 38.84L110.12 38.84Q107.60 38.84 105.62 40.32Q103.64 41.80 102.51 44.50Q101.38 47.20 101.38 50.90L101.38 50.90Q101.38 55.51 102.94 58.70Q104.51 61.88 107.24 63.52Q109.98 65.16 113.51 65.16L113.51 65.16Q116.75 65.16 119.16 63.74Q121.57 62.32 122.76 59.90L122.76 59.90Q123.30 59.22 123.64 58.99Q123.98 58.75 124.38 58.75L124.38 58.75Q124.92 58.75 125.15 59.22Q125.39 59.69 125.35 60.30L125.35 60.30Q125.14 63.32 123.23 65.83Q121.32 68.33 118.08 69.80Q114.84 71.28 110.70 71.28L110.70 71.28Q105.59 71.28 101.65 69.16Q97.70 67.03 95.49 63.18Q93.28 59.33 93.28 54.14L93.28 54.14Q93.28 48.92 95.51 44.75Q97.74 40.57 101.79 38.12Q105.84 35.68 111.31 35.68L111.31 35.68Q115.60 35.68 118.69 37.01Q121.79 38.34 123.46 40.54Q125.14 42.73 125.14 45.32ZM143.21 37.98L143.21 37.98L143.57 43.74Q143.75 43.27 143.93 42.80L143.93 42.80Q145.44 39.28 147.85 37.48Q150.26 35.68 153.00 35.68L153.00 35.68Q156.35 35.68 158.18 37.55Q160.02 39.42 160.02 42.84L160.02 42.84Q160.02 45.68 158.81 47.11Q157.61 48.53 155.70 48.53Q153.79 48.53 152.77 47.48Q151.74 46.44 151.74 44.57L151.74 44.57L151.74 43.31Q151.70 42.12 151.18 41.54Q150.66 40.97 149.44 40.97L149.44 40.97Q148.00 40.97 146.68 42.10Q145.37 43.24 144.54 45.54Q143.71 47.84 143.71 51.41L143.71 51.41L143.71 65.05Q143.71 66.02 144.11 66.49Q144.50 66.96 145.55 67.14L145.55 67.14L148.72 67.61Q149.51 67.72 149.90 68.08Q150.30 68.44 150.30 69.05L150.30 69.05Q150.30 69.70 149.83 70.06Q149.36 70.42 148.46 70.42L148.46 70.42L132.44 70.42Q131.51 70.42 131.08 70.06Q130.64 69.70 130.64 69.08L130.64 69.08Q130.64 68.58 130.95 68.24Q131.26 67.90 131.94 67.68L131.94 67.68L133.49 67.32Q134.17 67.10 134.51 66.62Q134.86 66.13 134.86 65.09L134.86 65.09L134.86 43.63Q134.86 42.77 134.57 42.39Q134.28 42.01 133.67 41.90L133.67 41.90L131.51 41.80Q130.86 41.65 130.59 41.36Q130.32 41.08 130.32 40.61L130.32 40.61Q130.32 40.10 130.66 39.76Q131.00 39.42 131.87 39.10L131.87 39.10L138.10 36.86Q139.68 36.29 140.44 36.09Q141.19 35.89 141.62 35.89L141.62 35.89Q142.34 35.89 142.72 36.38Q143.10 36.86 143.21 37.98ZM190.19 65.74L190.19 65.74L190.19 65.09Q186.55 68.26 183.74 69.66L183.74 69.66Q180.43 71.28 177.48 71.28L177.48 71.28Q172.94 71.28 170.15 68.36Q167.36 65.45 167.36 60.52L167.36 60.52L167.36 43.56Q167.36 42.70 167.08 42.32Q166.79 41.94 166.18 41.87L166.18 41.87L164.02 41.72Q163.37 41.62 163.10 41.33Q162.83 41.04 162.83 40.57L162.83 40.57Q162.83 40.03 163.15 39.71Q163.48 39.38 164.38 39.06L164.38 39.06L170.71 36.79Q172.01 36.32 172.76 36.13Q173.52 35.93 174.06 35.93L174.06 35.93Q175.14 35.93 175.68 36.49Q176.22 37.04 176.22 38.02L176.22 38.02L176.22 59.18Q176.22 62.57 177.86 64.26Q179.50 65.95 182.20 65.95L182.20 65.95Q183.89 65.95 185.83 65.11Q187.78 64.26 189.90 62.42L189.90 62.42L189.94 62.39L189.94 43.56Q189.94 42.70 189.67 42.32Q189.40 41.94 188.78 41.87L188.78 41.87L186.59 41.72Q185.98 41.62 185.69 41.33Q185.40 41.04 185.40 40.57L185.40 40.57Q185.40 40.03 185.74 39.71Q186.08 39.38 186.95 39.06L186.95 39.06L193.28 36.79Q194.54 36.32 195.32 36.13Q196.09 35.93 196.74 35.93L196.74 35.93Q197.75 35.93 198.27 36.49Q198.79 37.04 198.79 38.02L198.79 38.02L198.79 65.05Q198.79 66.10 199.13 66.60Q199.48 67.10 200.16 67.32L200.16 67.32L201.64 67.68Q202.32 67.90 202.63 68.24Q202.93 68.58 202.93 69.08L202.93 69.08Q202.93 69.70 202.50 70.06Q202.07 70.42 201.13 70.42L201.13 70.42L194.33 70.42Q192.53 70.42 191.36 69.14Q190.19 67.86 190.19 65.74ZM221.65 37.98L221.65 37.98L221.65 65.05Q221.65 66.10 221.99 66.60Q222.34 67.10 222.98 67.32L222.98 67.32L224.50 67.68Q225.14 67.90 225.47 68.24Q225.79 68.58 225.79 69.08L225.79 69.08Q225.79 69.70 225.36 70.06Q224.93 70.42 223.99 70.42L223.99 70.42L210.38 70.42Q209.45 70.42 209.02 70.06Q208.58 69.70 208.58 69.08L208.58 69.08Q208.58 68.58 208.89 68.24Q209.20 67.90 209.88 67.68L209.88 67.68L211.43 67.32Q212.11 67.10 212.45 66.62Q212.80 66.13 212.80 65.09L212.80 65.09L212.80 43.56Q212.80 42.70 212.51 42.32Q212.22 41.94 211.61 41.83L211.61 41.83L209.45 41.72Q208.80 41.62 208.53 41.31Q208.26 41.00 208.26 40.57L208.26 40.57Q208.26 40.03 208.58 39.69Q208.91 39.35 209.81 39.06L209.81 39.06L216.14 36.76Q217.44 36.29 218.20 36.09Q218.95 35.89 219.53 35.89L219.53 35.89Q220.57 35.89 221.11 36.47Q221.65 37.04 221.65 37.98ZM216.43 29.81L216.43 29.81Q213.80 29.81 212.22 28.42Q210.64 27.04 210.64 24.80L210.64 24.80Q210.64 22.57 212.22 21.22Q213.80 19.87 216.43 19.87L216.43 19.87Q219.06 19.87 220.66 21.24Q222.26 22.61 222.26 24.80L222.26 24.80Q222.26 27.04 220.66 28.42Q219.06 29.81 216.43 29.81ZM232.63 39.71L232.63 39.71L230.83 39.20Q229.93 38.95 229.59 38.59Q229.25 38.23 229.25 37.76L229.25 37.76Q229.25 37.12 229.70 36.79Q230.15 36.47 230.87 36.47L230.87 36.47L233.14 36.47Q234.04 36.47 234.61 36.16Q235.19 35.86 235.73 35.03L235.73 35.03L239.15 29.63Q239.80 28.76 240.41 28.35Q241.02 27.94 241.63 27.94L241.63 27.94Q242.32 27.94 242.69 28.37Q243.07 28.80 243.07 29.59L243.07 29.59L243.07 36.47L251.03 36.47Q251.82 36.47 252.25 36.77Q252.68 37.08 252.68 37.69L252.68 37.69Q252.68 38.52 251.84 39.10Q250.99 39.67 249.12 39.67L249.12 39.67L243.07 39.67L243.07 60.84Q243.07 63.36 244.08 64.67Q245.09 65.99 246.92 65.99L246.92 65.99Q248.22 65.99 248.96 65.50Q249.70 65.02 250.13 64.39Q250.56 63.76 250.96 63.27Q251.35 62.78 251.93 62.75L251.93 62.75Q252.43 62.75 252.70 63.07Q252.97 63.40 252.97 64.12L252.97 64.12Q252.97 65.95 251.75 67.54Q250.52 69.12 248.38 70.11Q246.24 71.10 243.50 71.10L243.50 71.10Q239.22 71.10 236.74 68.90Q234.25 66.71 234.25 62.28L234.25 62.28L234.25 41.80Q234.25 40.90 233.87 40.45Q233.50 40.00 232.63 39.71ZM290.12 49.25L290.12 49.25Q290.12 51.05 289.08 52.00Q288.04 52.96 286.09 52.96L286.09 52.96L265.79 52.96Q266.22 58.54 269.06 61.56L269.06 61.56Q272.41 65.16 277.88 65.16L277.88 65.16Q281.27 65.16 283.77 63.72Q286.27 62.28 287.50 59.80L287.50 59.80Q288.04 59.15 288.38 58.91Q288.72 58.68 289.12 58.68L289.12 58.68Q289.62 58.68 289.87 59.15Q290.12 59.62 290.09 60.26L290.09 60.26Q289.91 63.25 287.95 65.77Q285.98 68.29 282.65 69.79Q279.32 71.28 275.08 71.28L275.08 71.28Q269.93 71.28 265.99 69.16Q262.04 67.03 259.83 63.18Q257.62 59.33 257.62 54.14L257.62 54.14Q257.62 48.78 259.76 44.62Q261.90 40.46 265.86 38.07Q269.82 35.68 275.33 35.68L275.33 35.68Q279.94 35.68 283.25 37.40Q286.56 39.13 288.34 42.19Q290.12 45.25 290.12 49.25ZM265.72 50.40L279.36 50.40Q281.16 50.40 281.16 48.82L281.16 48.82Q281.16 44.03 279.25 41.44Q277.34 38.84 274.14 38.84L274.14 38.84Q271.66 38.84 269.75 40.30Q267.84 41.76 266.80 44.46L266.80 44.46Q265.79 47.02 265.72 50.40L265.72 50.40ZM308.41 37.98L308.41 37.98L308.77 43.74Q308.95 43.27 309.13 42.80L309.13 42.80Q310.64 39.28 313.06 37.48Q315.47 35.68 318.20 35.68L318.20 35.68Q321.55 35.68 323.39 37.55Q325.22 39.42 325.22 42.84L325.22 42.84Q325.22 45.68 324.02 47.11Q322.81 48.53 320.90 48.53Q319.00 48.53 317.97 47.48Q316.94 46.44 316.94 44.57L316.94 44.57L316.94 43.31Q316.91 42.12 316.39 41.54Q315.86 40.97 314.64 40.97L314.64 40.97Q313.20 40.97 311.89 42.10Q310.57 43.24 309.74 45.54Q308.92 47.84 308.92 51.41L308.92 51.41L308.92 65.05Q308.92 66.02 309.31 66.49Q309.71 66.96 310.75 67.14L310.75 67.14L313.92 67.61Q314.71 67.72 315.11 68.08Q315.50 68.44 315.50 69.05L315.50 69.05Q315.50 69.70 315.04 70.06Q314.57 70.42 313.67 70.42L313.67 70.42L297.65 70.42Q296.71 70.42 296.28 70.06Q295.85 69.70 295.85 69.08L295.85 69.08Q295.85 68.58 296.15 68.24Q296.46 67.90 297.14 67.68L297.14 67.68L298.69 67.32Q299.38 67.10 299.72 66.62Q300.06 66.13 300.06 65.09L300.06 65.09L300.06 43.63Q300.06 42.77 299.77 42.39Q299.48 42.01 298.87 41.90L298.87 41.90L296.71 41.80Q296.06 41.65 295.79 41.36Q295.52 41.08 295.52 40.61L295.52 40.61Q295.52 40.10 295.87 39.76Q296.21 39.42 297.07 39.10L297.07 39.10L303.30 36.86Q304.88 36.29 305.64 36.09Q306.40 35.89 306.83 35.89L306.83 35.89Q307.55 35.89 307.93 36.38Q308.30 36.86 308.41 37.98ZM358.31 37.98L358.31 37.98L358.31 65.05Q358.31 66.10 358.65 66.60Q358.99 67.10 359.64 67.32L359.64 67.32L361.15 67.68Q361.80 67.90 362.12 68.24Q362.45 68.58 362.45 69.08L362.45 69.08Q362.45 69.70 362.02 70.06Q361.58 70.42 360.65 70.42L360.65 70.42L347.04 70.42Q346.10 70.42 345.67 70.06Q345.24 69.70 345.24 69.08L345.24 69.08Q345.24 68.58 345.55 68.24Q345.85 67.90 346.54 67.68L346.54 67.68L348.08 67.32Q348.77 67.10 349.11 66.62Q349.45 66.13 349.45 65.09L349.45 65.09L349.45 43.56Q349.45 42.70 349.16 42.32Q348.88 41.94 348.26 41.83L348.26 41.83L346.10 41.72Q345.46 41.62 345.19 41.31Q344.92 41.00 344.92 40.57L344.92 40.57Q344.92 40.03 345.24 39.69Q345.56 39.35 346.46 39.06L346.46 39.06L352.80 36.76Q354.10 36.29 354.85 36.09Q355.61 35.89 356.18 35.89L356.18 35.89Q357.23 35.89 357.77 36.47Q358.31 37.04 358.31 37.98ZM353.09 29.81L353.09 29.81Q350.46 29.81 348.88 28.42Q347.29 27.04 347.29 24.80L347.29 24.80Q347.29 22.57 348.88 21.22Q350.46 19.87 353.09 19.87L353.09 19.87Q355.72 19.87 357.32 21.24Q358.92 22.61 358.92 24.80L358.92 24.80Q358.92 27.04 357.32 28.42Q355.72 29.81 353.09 29.81ZM380.56 37.98L380.56 37.98L380.56 41.98Q384.23 38.81 387 37.33L387 37.33Q390.13 35.68 393.01 35.68L393.01 35.68Q397.40 35.68 399.82 38.59Q402.23 41.51 402.77 46.40L402.77 46.40L404.86 64.94Q405 66.06 405.31 66.58Q405.61 67.10 406.33 67.32L406.33 67.32L407.74 67.68Q408.38 67.90 408.69 68.24Q409.00 68.58 409.00 69.08L409.00 69.08Q409.00 69.70 408.58 70.06Q408.17 70.42 407.23 70.42L407.23 70.42L393.73 70.42Q391.90 70.42 391.90 69.01L391.90 69.01Q391.90 68.11 393.01 67.68L393.01 67.68L394.52 67.32Q395.28 67.10 395.66 66.56Q396.04 66.02 395.93 64.94L395.93 64.94L393.95 47.74Q393.55 44.39 392.20 42.70Q390.85 41.00 388.30 41.00L388.30 41.00Q386.68 41.00 384.86 41.89Q383.04 42.77 380.99 44.53L380.99 44.53L380.56 44.89L380.56 65.05Q380.56 66.10 380.88 66.60Q381.20 67.10 381.89 67.32L381.89 67.32L383.36 67.68Q384.48 68.11 384.48 69.01L384.48 69.01Q384.48 70.42 382.64 70.42L382.64 70.42L369.29 70.42Q368.35 70.42 367.92 70.06Q367.49 69.70 367.49 69.08L367.49 69.08Q367.49 68.58 367.79 68.24Q368.10 67.90 368.75 67.68L368.75 67.68L370.33 67.32Q371.02 67.10 371.36 66.62Q371.70 66.13 371.70 65.09L371.70 65.09L371.70 43.56Q371.70 42.70 371.41 42.32Q371.12 41.94 370.51 41.83L370.51 41.83L368.35 41.72Q367.70 41.62 367.43 41.31Q367.16 41.00 367.16 40.57L367.16 40.57Q367.16 40.03 367.49 39.69Q367.81 39.35 368.71 39.06L368.71 39.06L375.05 36.76Q376.27 36.32 377.05 36.11Q377.82 35.89 378.47 35.89L378.47 35.89Q379.51 35.89 380.03 36.47Q380.56 37.04 380.56 37.98ZM468.18 27.90L455.69 52.56L455.69 64.87Q455.69 65.63 456.16 66.13Q456.62 66.64 457.45 66.85L457.45 66.85L459.68 67.28Q461.12 67.72 461.12 68.94L461.12 68.94Q461.12 69.62 460.66 70.02Q460.19 70.42 459.18 70.42L459.18 70.42L442.44 70.42Q441.43 70.42 440.95 70.00Q440.46 69.59 440.46 68.94L440.46 68.94Q440.46 67.72 441.90 67.28L441.90 67.28L444.13 66.85Q445.00 66.64 445.45 66.13Q445.90 65.63 445.90 64.87L445.90 64.87L445.90 53.03L431.68 25.67Q431.10 24.55 430.61 24.10Q430.13 23.65 429.34 23.40L429.34 23.40L428.18 23.08Q427.39 22.79 427.07 22.39Q426.74 22.00 426.74 21.49L426.74 21.49Q426.74 20.81 427.25 20.41Q427.75 20.02 428.76 20.02L428.76 20.02L445.21 20.02Q446.26 20.02 446.81 20.39Q447.37 20.77 447.37 21.49L447.37 21.49Q447.37 22.72 445.64 23.15L445.64 23.15L443.70 23.47Q442.37 23.76 442.06 24.34Q441.76 24.91 442.33 26.14L442.33 26.14L453.46 48.78L464.18 27.61Q464.98 26.03 464.60 24.97Q464.22 23.90 462.49 23.44L462.49 23.44L460.40 23.04Q459.79 22.86 459.45 22.48Q459.11 22.10 459.11 21.49L459.11 21.49Q459.11 20.81 459.61 20.41Q460.12 20.02 461.12 20.02L461.12 20.02L472.10 20.02Q473.15 20.02 473.63 20.41Q474.12 20.81 474.12 21.49L474.12 21.49Q474.12 22.03 473.83 22.39Q473.54 22.75 472.72 23.04L472.72 23.04L472.18 23.26Q471.42 23.51 470.83 23.98Q470.23 24.44 469.62 25.34Q469.01 26.24 468.18 27.90L468.18 27.90ZM492.01 35.68L492.01 35.68Q497.45 35.68 501.57 37.94Q505.69 40.21 508.01 44.24Q510.34 48.28 510.34 53.53L510.34 53.53Q510.34 58.61 507.96 62.62Q505.58 66.64 501.41 68.96Q497.23 71.28 491.72 71.28L491.72 71.28Q486.29 71.28 482.18 68.99Q478.08 66.71 475.76 62.68Q473.44 58.64 473.44 53.42L473.44 53.42Q473.44 48.28 475.79 44.28Q478.15 40.28 482.33 37.98Q486.50 35.68 492.01 35.68ZM494.57 67.86L494.57 67.86Q497.30 67.46 498.98 65.50Q500.65 63.54 501.17 60.17Q501.70 56.81 500.87 52.13L500.87 52.13Q500.08 47.48 498.38 44.42Q496.69 41.36 494.33 40.01Q491.98 38.66 489.17 39.10L489.17 39.10Q486.47 39.53 484.78 41.47Q483.08 43.42 482.58 46.78Q482.08 50.15 482.87 54.83L482.87 54.83Q483.66 59.47 485.35 62.53Q487.04 65.59 489.40 66.94Q491.76 68.29 494.57 67.86ZM542.20 65.74L542.20 65.74L542.20 65.09Q538.56 68.26 535.75 69.66L535.75 69.66Q532.44 71.28 529.49 71.28L529.49 71.28Q524.95 71.28 522.16 68.36Q519.37 65.45 519.37 60.52L519.37 60.52L519.37 43.56Q519.37 42.70 519.08 42.32Q518.80 41.94 518.18 41.87L518.18 41.87L516.02 41.72Q515.38 41.62 515.11 41.33Q514.84 41.04 514.84 40.57L514.84 40.57Q514.84 40.03 515.16 39.71Q515.48 39.38 516.38 39.06L516.38 39.06L522.72 36.79Q524.02 36.32 524.77 36.13Q525.53 35.93 526.07 35.93L526.07 35.93Q527.15 35.93 527.69 36.49Q528.23 37.04 528.23 38.02L528.23 38.02L528.23 59.18Q528.23 62.57 529.87 64.26Q531.50 65.95 534.20 65.95L534.20 65.95Q535.90 65.95 537.84 65.11Q539.78 64.26 541.91 62.42L541.91 62.42L541.94 62.39L541.94 43.56Q541.94 42.70 541.67 42.32Q541.40 41.94 540.79 41.87L540.79 41.87L538.60 41.72Q537.98 41.62 537.70 41.33Q537.41 41.04 537.41 40.57L537.41 40.57Q537.41 40.03 537.75 39.71Q538.09 39.38 538.96 39.06L538.96 39.06L545.29 36.79Q546.55 36.32 547.33 36.13Q548.10 35.93 548.75 35.93L548.75 35.93Q549.76 35.93 550.28 36.49Q550.80 37.04 550.80 38.02L550.80 38.02L550.80 65.05Q550.80 66.10 551.14 66.60Q551.48 67.10 552.17 67.32L552.17 67.32L553.64 67.68Q554.33 67.90 554.63 68.24Q554.94 68.58 554.94 69.08L554.94 69.08Q554.94 69.70 554.51 70.06Q554.08 70.42 553.14 70.42L553.14 70.42L546.34 70.42Q544.54 70.42 543.37 69.14Q542.20 67.86 542.20 65.74ZM573.16 37.98L573.16 37.98L573.52 43.74Q573.70 43.27 573.88 42.80L573.88 42.80Q575.39 39.28 577.80 37.48Q580.21 35.68 582.95 35.68L582.95 35.68Q586.30 35.68 588.13 37.55Q589.97 39.42 589.97 42.84L589.97 42.84Q589.97 45.68 588.76 47.11Q587.56 48.53 585.65 48.53Q583.74 48.53 582.71 47.48Q581.69 46.44 581.69 44.57L581.69 44.57L581.69 43.31Q581.65 42.12 581.13 41.54Q580.61 40.97 579.38 40.97L579.38 40.97Q577.94 40.97 576.63 42.10Q575.32 43.24 574.49 45.54Q573.66 47.84 573.66 51.41L573.66 51.41L573.66 65.05Q573.66 66.02 574.06 66.49Q574.45 66.96 575.50 67.14L575.50 67.14L578.66 67.61Q579.46 67.72 579.85 68.08Q580.25 68.44 580.25 69.05L580.25 69.05Q580.25 69.70 579.78 70.06Q579.31 70.42 578.41 70.42L578.41 70.42L562.39 70.42Q561.46 70.42 561.02 70.06Q560.59 69.70 560.59 69.08L560.59 69.08Q560.59 68.58 560.90 68.24Q561.20 67.90 561.89 67.68L561.89 67.68L563.44 67.32Q564.12 67.10 564.46 66.62Q564.80 66.13 564.80 65.09L564.80 65.09L564.80 43.63Q564.80 42.77 564.52 42.39Q564.23 42.01 563.62 41.90L563.62 41.90L561.46 41.80Q560.81 41.65 560.54 41.36Q560.27 41.08 560.27 40.61L560.27 40.61Q560.27 40.10 560.61 39.76Q560.95 39.42 561.82 39.10L561.82 39.10L568.04 36.86Q569.63 36.29 570.38 36.09Q571.14 35.89 571.57 35.89L571.57 35.89Q572.29 35.89 572.67 36.38Q573.05 36.86 573.16 37.98ZM653.90 38.23L653.90 38.23Q653.90 42.88 651.55 46.28Q649.19 49.68 644.89 51.57Q640.58 53.46 634.79 53.46L634.79 53.46Q630.90 53.46 627.66 52.63L627.66 52.63Q626.83 52.42 626.08 52.16L626.08 52.16L626.08 64.87Q626.08 65.63 626.51 66.17Q626.94 66.71 627.84 66.85L627.84 66.85L631.26 67.28Q632.09 67.43 632.45 67.82Q632.81 68.22 632.81 68.94L632.81 68.94Q632.81 69.62 632.34 70.02Q631.87 70.42 630.86 70.42L630.86 70.42L612.83 70.42Q611.82 70.42 611.33 70.02Q610.85 69.62 610.85 68.94L610.85 68.94Q610.85 67.72 612.29 67.28L612.29 67.28L614.52 66.85Q615.38 66.64 615.85 66.13Q616.32 65.63 616.32 64.87L616.32 64.87L616.32 25.56Q616.32 24.80 615.85 24.30Q615.38 23.80 614.52 23.58L614.52 23.58L612.29 23.15Q610.85 22.72 610.85 21.49L610.85 21.49Q610.85 20.81 611.33 20.41Q611.82 20.02 612.83 20.02L612.83 20.02L629.64 20.02Q637.31 20.02 642.73 22.36Q648.14 24.70 651.02 28.82Q653.90 32.94 653.90 38.23ZM626.08 23.26L626.08 49.18Q627.34 49.57 628.70 49.79L628.70 49.79Q630.47 50.11 632.34 50.11L632.34 50.11Q635.80 50.11 638.50 48.69Q641.20 47.27 642.73 44.55Q644.26 41.83 644.26 37.98L644.26 37.98Q644.26 33.52 642.42 30.20Q640.58 26.89 637.25 25.07Q633.92 23.26 629.39 23.26L629.39 23.26L626.08 23.26ZM675.58 35.68L675.58 35.68Q681.01 35.68 685.13 37.94Q689.26 40.21 691.58 44.24Q693.90 48.28 693.90 53.53L693.90 53.53Q693.90 58.61 691.52 62.62Q689.15 66.64 684.97 68.96Q680.80 71.28 675.29 71.28L675.29 71.28Q669.85 71.28 665.75 68.99Q661.64 66.71 659.32 62.68Q657.00 58.64 657.00 53.42L657.00 53.42Q657.00 48.28 659.36 44.28Q661.72 40.28 665.89 37.98Q670.07 35.68 675.58 35.68ZM678.13 67.86L678.13 67.86Q680.87 67.46 682.54 65.50Q684.22 63.54 684.74 60.17Q685.26 56.81 684.43 52.13L684.43 52.13Q683.64 47.48 681.95 44.42Q680.26 41.36 677.90 40.01Q675.54 38.66 672.73 39.10L672.73 39.10Q670.03 39.53 668.34 41.47Q666.65 43.42 666.14 46.78Q665.64 50.15 666.43 54.83L666.43 54.83Q667.22 59.47 668.92 62.53Q670.61 65.59 672.97 66.94Q675.32 68.29 678.13 67.86ZM731.30 45.32L731.30 45.32Q731.30 47.20 730.03 48.46Q728.75 49.72 726.62 49.72L726.62 49.72Q724.57 49.72 723.47 48.56Q722.38 47.41 722.38 45.54L722.38 45.54L722.38 44.42Q722.38 41.90 720.74 40.37Q719.10 38.84 716.29 38.84L716.29 38.84Q713.77 38.84 711.79 40.32Q709.81 41.80 708.68 44.50Q707.54 47.20 707.54 50.90L707.54 50.90Q707.54 55.51 709.11 58.70Q710.68 61.88 713.41 63.52Q716.15 65.16 719.68 65.16L719.68 65.16Q722.92 65.16 725.33 63.74Q727.74 62.32 728.93 59.90L728.93 59.90Q729.47 59.22 729.81 58.99Q730.15 58.75 730.55 58.75L730.55 58.75Q731.09 58.75 731.32 59.22Q731.56 59.69 731.52 60.30L731.52 60.30Q731.30 63.32 729.40 65.83Q727.49 68.33 724.25 69.80Q721.01 71.28 716.87 71.28L716.87 71.28Q711.76 71.28 707.81 69.16Q703.87 67.03 701.66 63.18Q699.44 59.33 699.44 54.14L699.44 54.14Q699.44 48.92 701.68 44.75Q703.91 40.57 707.96 38.12Q712.01 35.68 717.48 35.68L717.48 35.68Q721.76 35.68 724.86 37.01Q727.96 38.34 729.63 40.54Q731.30 42.73 731.30 45.32ZM751.97 70.42L738.43 70.42Q737.53 70.42 737.17 70.06Q736.81 69.70 736.81 69.08L736.81 69.08Q736.81 68.58 737.12 68.24Q737.42 67.90 738.11 67.68L738.11 67.68L739.66 67.32Q740.34 67.10 740.68 66.62Q741.02 66.13 741.02 65.09L741.02 65.09L741.02 24.77Q741.02 23.90 740.74 23.53Q740.45 23.15 739.84 23.04L739.84 23.04L737.68 22.93Q737.03 22.79 736.76 22.50Q736.49 22.21 736.49 21.74L736.49 21.74Q736.49 21.24 736.81 20.90Q737.14 20.56 738.04 20.23L738.04 20.23L744.37 17.96Q745.60 17.50 746.37 17.30Q747.14 17.10 747.79 17.10L747.79 17.10Q748.84 17.10 749.36 17.66Q749.88 18.22 749.88 19.19L749.88 19.19L749.88 52.56L762.23 42.48Q763.49 41.47 763.36 40.63Q763.24 39.78 761.83 39.42L761.83 39.42L760.46 39.13Q759.78 38.92 759.53 38.61Q759.28 38.30 759.28 37.80L759.28 37.80Q759.28 37.15 759.74 36.81Q760.21 36.47 761.04 36.47L761.04 36.47L773.24 36.47Q774.07 36.47 774.54 36.81Q775.01 37.15 775.01 37.76Q775.01 38.38 774.61 38.77Q774.22 39.17 772.96 39.46L772.96 39.46Q771.16 39.82 769.81 40.55Q768.46 41.29 766.33 42.98L766.33 42.98L760.00 48.06L771.80 64.94Q772.74 66.20 773.42 66.69Q774.11 67.18 775.40 67.54L775.40 67.54Q776.16 67.86 776.52 68.26Q776.88 68.65 776.88 69.16L776.88 69.16Q776.88 69.73 776.41 70.07Q775.94 70.42 775.15 70.42L775.15 70.42L761.04 70.42Q760.28 70.42 759.85 70.06Q759.42 69.70 759.42 69.08L759.42 69.08Q759.42 68.65 759.67 68.35Q759.92 68.04 760.50 67.86L760.50 67.86L761.80 67.54Q762.88 67.28 762.95 66.69Q763.02 66.10 762.01 64.62L762.01 64.62L753.88 52.99L749.88 56.20L749.88 65.05Q749.88 66.10 750.20 66.60Q750.53 67.10 751.21 67.32L751.21 67.32L752.69 67.68Q753.80 68.11 753.80 69.01L753.80 69.01Q753.80 70.42 751.97 70.42L751.97 70.42ZM812.59 49.25L812.59 49.25Q812.59 51.05 811.55 52.00Q810.50 52.96 808.56 52.96L808.56 52.96L788.26 52.96Q788.69 58.54 791.53 61.56L791.53 61.56Q794.88 65.16 800.35 65.16L800.35 65.16Q803.74 65.16 806.24 63.72Q808.74 62.28 809.96 59.80L809.96 59.80Q810.50 59.15 810.85 58.91Q811.19 58.68 811.58 58.68L811.58 58.68Q812.09 58.68 812.34 59.15Q812.59 59.62 812.56 60.26L812.56 60.26Q812.38 63.25 810.41 65.77Q808.45 68.29 805.12 69.79Q801.79 71.28 797.54 71.28L797.54 71.28Q792.40 71.28 788.45 69.16Q784.51 67.03 782.30 63.18Q780.08 59.33 780.08 54.14L780.08 54.14Q780.08 48.78 782.23 44.62Q784.37 40.46 788.33 38.07Q792.29 35.68 797.80 35.68L797.80 35.68Q802.40 35.68 805.72 37.40Q809.03 39.13 810.81 42.19Q812.59 45.25 812.59 49.25ZM788.18 50.40L801.83 50.40Q803.63 50.40 803.63 48.82L803.63 48.82Q803.63 44.03 801.72 41.44Q799.81 38.84 796.61 38.84L796.61 38.84Q794.12 38.84 792.22 40.30Q790.31 41.76 789.26 44.46L789.26 44.46Q788.26 47.02 788.18 50.40L788.18 50.40ZM820.12 39.71L820.12 39.71L818.32 39.20Q817.42 38.95 817.07 38.59Q816.73 38.23 816.73 37.76L816.73 37.76Q816.73 37.12 817.18 36.79Q817.63 36.47 818.35 36.47L818.35 36.47L820.62 36.47Q821.52 36.47 822.10 36.16Q822.67 35.86 823.21 35.03L823.21 35.03L826.63 29.63Q827.28 28.76 827.89 28.35Q828.50 27.94 829.12 27.94L829.12 27.94Q829.80 27.94 830.18 28.37Q830.56 28.80 830.56 29.59L830.56 29.59L830.56 36.47L838.51 36.47Q839.30 36.47 839.74 36.77Q840.17 37.08 840.17 37.69L840.17 37.69Q840.17 38.52 839.32 39.10Q838.48 39.67 836.60 39.67L836.60 39.67L830.56 39.67L830.56 60.84Q830.56 63.36 831.56 64.67Q832.57 65.99 834.41 65.99L834.41 65.99Q835.70 65.99 836.44 65.50Q837.18 65.02 837.61 64.39Q838.04 63.76 838.44 63.27Q838.84 62.78 839.41 62.75L839.41 62.75Q839.92 62.75 840.19 63.07Q840.46 63.40 840.46 64.12L840.46 64.12Q840.46 65.95 839.23 67.54Q838.01 69.12 835.87 70.11Q833.72 71.10 830.99 71.10L830.99 71.10Q826.70 71.10 824.22 68.90Q821.74 66.71 821.74 62.28L821.74 62.28L821.74 41.80Q821.74 40.90 821.36 40.45Q820.98 40.00 820.12 39.71Z"/>
</svg>