<svg xmlns="http://www.w3.org/2000/svg" fill="none" viewBox="0 0 24 24" stroke-width="1.5" stroke="currentColor" aria-hidden="true">
  <path stroke-linecap="round" stroke-linejoin="round" d="m9 12.75 1.5 1.5 3-3" />
  <path stroke-linecap="round" stroke-linejoin="round" d="M9.75 5.25h4.5A2.25 2.25 0 0 1 16.5 7.5v10.125A1.125 1.125 0 0 1 15.375 18.75h-6.75A1.125 1.125 0 0 1 7.5 17.625V7.5a2.25 2.25 0 0 1 2.25-2.25Z" />
  <path stroke-linecap="round" stroke-linejoin="round" d="M9 5.25a.75.75 0 0 1 .75-.75h3a.75.75 0 0 1 .75.75V6a.75.75 0 0 1-.75.75h-3A.75.75 0 0 1 9 6V5.25Z" />
</svg>
