<svg xmlns="http://www.w3.org/2000/svg" fill="none" viewBox="0 0 24 24" stroke-width="1.5" stroke="currentColor" aria-hidden="true">
  <path stroke-linecap="round" stroke-linejoin="round" d="M16.862 4.487a2.25 2.25 0 1 1 3.182 3.183L9.31 18.404a4.5 4.5 0 0 1-1.591 1.028l-2.685.895.895-2.685a4.5 4.5 0 0 1 1.028-1.591L16.862 4.487z"/>
  <path stroke-linecap="round" stroke-linejoin="round" d="M18.375 5.625 20.25 7.5"/>
  <path stroke-linecap="round" stroke-linejoin="round" d="M13.5 6.75H6.75A2.25 2.25 0 0 0 4.5 9v10.5A2.25 2.25 0 0 0 6.75 21h10.5A2.25 2.25 0 0 0 19.5 18.75V12"/>
</svg>
