<svg xmlns="http://www.w3.org/2000/svg" viewBox="0 0 100 24" fill="currentColor">
  <path d="M0 18.5V5.5h2.4v10.8h5.4v2.2H0zM10.2 18.5V9.3h2.3v9.2h-2.3zm1.15-10.5c-.8 0-1.4-.6-1.4-1.35 0-.75.6-1.35 1.4-1.35.8 0 1.4.6 1.4 1.35 0 .75-.6 1.35-1.4 1.35zM15.5 18.5V9.3h2.2v1.3c.7-1 1.8-1.5 3.1-1.5 2.3 0 3.8 1.6 3.8 4.1v5.3h-2.3v-4.9c0-1.5-.8-2.4-2.1-2.4-1.4 0-2.4 1-2.4 2.6v4.7h-2.3zM27.2 13.9c0-2.8 2.1-4.8 5-4.8 1.8 0 3.2.7 4 2l-1.8 1.1c-.5-.7-1.3-1.1-2.2-1.1-1.6 0-2.7 1.1-2.7 2.8 0 1.7 1.1 2.8 2.7 2.8.9 0 1.7-.4 2.2-1.1l1.8 1.1c-.8 1.3-2.2 2-4 2-2.9 0-5-2-5-4.8zM43.8 18.5v-1.2c-.7.9-1.8 1.4-3.2 1.4-2 0-3.5-1.2-3.5-3 0-1.7 1.3-2.8 3.7-2.9h3v-.3c0-1.1-.7-1.8-2.1-1.8-1.1 0-1.9.5-2.2 1.3l-2-1c.7-1.4 2.2-2.2 4.3-2.2 2.7 0 4.3 1.4 4.3 3.8v5.9h-2.3zm0-4.1h-2.5c-1.2 0-1.8.4-1.8 1.2 0 .7.6 1.2 1.7 1.2 1.5 0 2.6-.8 2.6-2.1v-.3zM49 18.5V9.3h2.2v1.4c.6-1 1.5-1.6 2.7-1.6.4 0 .7.05 1 .15v2.2c-.4-.15-.8-.2-1.2-.2-1.4 0-2.4 1-2.4 2.8v4.4H49z"/>
</svg>
