<svg xmlns="http://www.w3.org/2000/svg" viewBox="0 0 111 30" fill="currentColor">
  <path d="M105.06 14.28L111 30H103.17L97.4 14.28H105.06ZM97.4 14.28V30H90.39V0H97.4V14.28Z"/>
  <path d="M79.97 24.39C77.53 24.39 76.03 22.85 76.03 20.25V9.74H83.04V3.23H76.03V-3.81469e-06H68.94V20.25C68.94 26.45 73.02 30 79.97 30V24.39Z"/>
  <path d="M61.86 24.47C59.06 24.47 57.07 22.69 56.82 19.91H49.73C50.14 26.2 55.17 30 61.86 30C68.96 30 73.44 25.77 73.44 20.09C73.44 9.41 58.35 12.51 58.35 8.12C58.35 6.58 59.68 5.45 61.86 5.45C64.33 5.45 65.93 6.99 66.01 9.41H73.02C72.86 3.28 68.05 -3.81469e-06 61.86 -3.81469e-06C55.09 -3.81469e-06 50.77 4.15 50.77 9.5C50.77 19.75 65.86 16.73 65.86 21.54C65.86 23.24 64.41 24.47 61.86 24.47Z"/>
  <path d="M32.54 30C24.64 30 18.91 24.14 18.91 15C18.91 5.86 24.64 0 32.54 0C40.45 0 46.17 5.86 46.17 15C46.17 24.14 40.45 30 32.54 30ZM32.54 24.06C36.58 24.06 39.08 20.75 39.08 15C39.08 9.25 36.58 5.94 32.54 5.94C28.51 5.94 26 9.25 26 15C26 20.75 28.51 24.06 32.54 24.06Z"/>
  <path d="M0 29.25V0.75H6.93V8.45L13.98 0.75H22.91L13.33 11.18L23.24 29.25H14.96L8.48 17.45L6.93 19.32V29.25H0Z"/>
</svg>
