<svg xmlns="http://www.w3.org/2000/svg" viewBox="0 0 120 24" fill="currentColor">
  <path d="M6.5 5C2.9 5 0 7.9 0 11.5S2.9 18 6.5 18 13 15.1 13 11.5 10.1 5 6.5 5zm0 10.8c-2.4 0-4.3-1.9-4.3-4.3s1.9-4.3 4.3-4.3 4.3 1.9 4.3 4.3-1.9 4.3-4.3 4.3zM22.5 5.2h-2.2v1c-.7-.8-1.7-1.2-2.9-1.2-2.5 0-4.5 2-4.5 4.5s2 4.5 4.5 4.5c1.2 0 2.2-.4 2.9-1.2v3.3c0 1.3-.9 2.2-2.2 2.2-.9 0-1.7-.5-2-1.2l-1.9.8c.6 1.3 2 2.2 3.9 2.2 2.4 0 4.4-1.7 4.4-4v-8.9zm-5.1 6.6c-1.4 0-2.5-1.1-2.5-2.5s1.1-2.5 2.5-2.5 2.5 1.1 2.5 2.5-1.1 2.5-2.5 2.5zM32.2 5c-2.8 0-5 2-5 4.5 0 2.6 2.1 4.6 5.1 4.6 1.6 0 2.9-.5 3.9-1.5l-1.3-1.3c-.6.6-1.5.9-2.5.9-1.5 0-2.6-.7-3-1.8h7.3v-.8c0-2.6-2-4.6-4.5-4.6zm-2.8 3.7c.3-1.1 1.3-1.8 2.7-1.8 1.3 0 2.3.7 2.5 1.8h-5.2zM45.9 5.2h-2.2v1c-.7-.8-1.7-1.2-2.9-1.2-2.5 0-4.5 2-4.5 4.5s2 4.5 4.5 4.5c1.2 0 2.2-.4 2.9-1.2v1h2.2V5.2zm-5.1 6.6c-1.4 0-2.5-1.1-2.5-2.5s1.1-2.5 2.5-2.5 2.5 1.1 2.5 2.5-1.1 2.5-2.5 2.5zM55.1 5.2h-2.2V14h2.2V5.2zm-1.1-3.7c-.8 0-1.4.6-1.4 1.4s.6 1.4 1.4 1.4 1.4-.6 1.4-1.4-.6-1.4-1.4-1.4z"/>
</svg>
